<svg width="48" height="48" viewBox="0 0 48 48" fill="none" xmlns="http://www.w3.org/2000/svg">
<path d="M0 24C0 10.7452 10.7452 0 24 0C37.2548 0 48 10.7452 48 24C48 37.2548 37.2548 48 24 48C10.7452 48 0 37.2548 0 24Z" fill="white"/>
<path d="M24 11.7333C27.7555 11.7333 30.2889 13.3556 31.7333 14.7111L37.3777 9.2C33.9111 5.97778 29.4 4 24 4C16.1777 4 9.42219 8.48889 6.1333 15.0222L12.6 20.0444C14.2222 15.2222 18.7111 11.7333 24 11.7333V11.7333Z" fill="#EA4335"/>
<path d="M43.2001 24.4444C43.2001 22.8 43.0667 21.6 42.7778 20.3555H24.0001V27.7778H35.0223C34.8001 29.6222 33.6001 32.4 30.9334 34.2666L37.2445 39.1555C41.0223 35.6666 43.2001 30.5333 43.2001 24.4444V24.4444Z" fill="#4285F4"/>
<path d="M12.6222 27.9556C12.2 26.7111 11.9556 25.3778 11.9556 24C11.9556 22.6222 12.2 21.2889 12.6 20.0444L6.13333 15.0222C4.77778 17.7333 4 20.7778 4 24C4 27.2222 4.77778 30.2667 6.13333 32.9778L12.6222 27.9556V27.9556Z" fill="#FBBC05"/>
<path d="M24 44C29.4 44 33.9334 42.2222 37.2445 39.1556L30.9334 34.2667C29.2445 35.4445 26.9778 36.2667 24 36.2667C18.7111 36.2667 14.2222 32.7778 12.6222 27.9556L6.15558 32.9778C9.44447 39.5111 16.1778 44 24 44V44Z" fill="#34A853"/>
</svg>
